<svg xmlns="http://www.w3.org/2000/svg" width="45.653" height="34.24" viewBox="0 0 45.653 34.24">
  <path id="email" d="M41.373,59.882H4.28A4.285,4.285,0,0,0,0,64.162v25.68a4.285,4.285,0,0,0,4.28,4.28H41.373a4.285,4.285,0,0,0,4.28-4.28V64.162A4.285,4.285,0,0,0,41.373,59.882Zm0,2.853a1.418,1.418,0,0,1,.547.11L22.827,79.394,3.733,62.846a1.42,1.42,0,0,1,.547-.11Zm0,28.533H4.28a1.428,1.428,0,0,1-1.427-1.427V65.86l19.039,16.5a1.429,1.429,0,0,0,1.87,0L42.8,65.86V89.842A1.428,1.428,0,0,1,41.373,91.269Z" transform="translate(0 -59.882)" fill="#35363f"/>
</svg>
