<svg id="phone_1_" data-name="phone (1)" xmlns="http://www.w3.org/2000/svg" width="39.554" height="39.554" viewBox="0 0 39.554 39.554">
  <g id="Group_50" data-name="Group 50" transform="translate(0 0)">
    <g id="Group_49" data-name="Group 49" transform="translate(0 0)">
      <path id="Path_55" data-name="Path 55" d="M38.785,31.452,34.4,28.528l-3.9-2.6a1.727,1.727,0,0,0-2.319.376l-2.412,3.1a1.718,1.718,0,0,1-2.193.455c-1.637-.91-3.572-1.768-7.842-6.044S10.6,17.613,9.692,15.976a1.718,1.718,0,0,1,.455-2.193l3.1-2.412a1.727,1.727,0,0,0,.376-2.319L11.106,5.274,8.1.769A1.727,1.727,0,0,0,5.778.246L2.314,2.324A4.232,4.232,0,0,0,.392,4.811C-.555,8.265-.746,15.883,11.463,28.092s19.827,12.017,23.28,11.07A4.231,4.231,0,0,0,37.23,37.24l2.078-3.464A1.727,1.727,0,0,0,38.785,31.452Z" transform="translate(0 0)" fill="#35363f"/>
      <path id="Path_56" data-name="Path 56" d="M283.164,63.156a11.606,11.606,0,0,1,11.593,11.593.682.682,0,0,0,1.364,0,12.972,12.972,0,0,0-12.957-12.957.682.682,0,0,0,0,1.364Z" transform="translate(-260.659 -57.018)" fill="#35363f"/>
      <path id="Path_57" data-name="Path 57" d="M283.163,116.12a7.51,7.51,0,0,1,7.5,7.5.682.682,0,1,0,1.364,0,8.876,8.876,0,0,0-8.865-8.865.682.682,0,1,0,0,1.364Z" transform="translate(-260.658 -105.891)" fill="#35363f"/>
      <path id="Path_58" data-name="Path 58" d="M283.164,169.087a3.414,3.414,0,0,1,3.41,3.41.682.682,0,1,0,1.364,0,4.779,4.779,0,0,0-4.774-4.774.682.682,0,0,0,0,1.364Z" transform="translate(-260.659 -154.766)" fill="#35363f"/>
    </g>
  </g>
</svg>
