<svg xmlns="http://www.w3.org/2000/svg" width="35.342" height="48.793" viewBox="0 0 35.342 48.793">
  <g id="marker" transform="translate(0)">
    <g id="Group_46" data-name="Group 46" transform="translate(0)">
      <g id="Group_45" data-name="Group 45">
        <path id="Path_53" data-name="Path 53" d="M88.244,0A17.691,17.691,0,0,0,70.573,17.671c0,12.092,15.814,29.844,16.487,30.594a1.592,1.592,0,0,0,2.368,0c.673-.75,16.487-18.5,16.487-30.594A17.691,17.691,0,0,0,88.244,0Zm0,44.764C82.922,38.442,73.755,25.97,73.755,17.671a14.489,14.489,0,1,1,28.977,0C102.732,25.97,93.567,38.44,88.244,44.764Z" transform="translate(-70.573)" fill="#35363f"/>
      </g>
    </g>
    <g id="Group_48" data-name="Group 48" transform="translate(8.78 8.78)">
      <g id="Group_47" data-name="Group 47">
        <path id="Path_54" data-name="Path 54" d="M171.6,92.134a8.891,8.891,0,1,0,8.89,8.891A8.9,8.9,0,0,0,171.6,92.134Zm0,14.6a5.708,5.708,0,1,1,5.708-5.708A5.715,5.715,0,0,1,171.6,106.733Z" transform="translate(-162.708 -92.134)" fill="#35363f"/>
      </g>
    </g>
  </g>
</svg>
