<svg xmlns="http://www.w3.org/2000/svg" width="182.699" height="122.343" viewBox="0 0 182.699 122.343">
  <g id="aquaproof" transform="translate(-128.71 -101.82)">
    <g id="Group_15" data-name="Group 15" transform="translate(131.942 198.358)">
      <g id="Group_14" data-name="Group 14" transform="translate(0)">
        <path id="Path_1" data-name="Path 1" d="M152.1,355.189l-1.717-3.992h-7.74l-1.717,3.992H136.54l7.98-18.469h3.992l7.98,18.469Zm-5.577-12.974-2.324,5.362h4.623Z" transform="translate(-136.54 -336.291)" fill="#fff"/>
        <path id="Path_2" data-name="Path 2" d="M206.878,345.224a9.409,9.409,0,0,1-1.465,5.177,9.062,9.062,0,0,1-3.951,3.435,1.886,1.886,0,0,0,.751.673,2.22,2.22,0,0,0,1.069.277,3.447,3.447,0,0,0,1.082-.173,3,3,0,0,0,.846-.409,3.891,3.891,0,0,0,.978-1.082l2.138,2.564a7.5,7.5,0,0,1-5.68,2.4,6.221,6.221,0,0,1-3.117-.871,5.871,5.871,0,0,1-2.353-2.456,9.5,9.5,0,0,1-6.9-2.737,9.667,9.667,0,0,1,0-13.606,10.061,10.061,0,0,1,13.8,0A9.132,9.132,0,0,1,206.878,345.224Zm-4.2.012a6.047,6.047,0,0,0-1.585-4.215,5.23,5.23,0,0,0-7.794,0,6.379,6.379,0,0,0,0,8.417,5.255,5.255,0,0,0,7.794,0A5.988,5.988,0,0,0,202.675,345.236Z" transform="translate(-166.452 -335.68)" fill="#fff"/>
        <path id="Path_3" data-name="Path 3" d="M247.492,350.421a3.368,3.368,0,0,0,2.774,1.28,3.333,3.333,0,0,0,2.762-1.28,5.494,5.494,0,0,0,1.016-3.5v-10.2h4.124v10.332a8.2,8.2,0,0,1-2.221,6.171,8.562,8.562,0,0,1-11.373-.012,8.177,8.177,0,0,1-2.233-6.155V336.724h4.12v10.2A5.468,5.468,0,0,0,247.492,350.421Z" transform="translate(-198.665 -336.291)" fill="#fff"/>
        <path id="Path_4" data-name="Path 4" d="M299.633,355.189l-1.717-3.992h-7.74l-1.717,3.992H284.07l7.98-18.469h3.992l7.979,18.469Zm-5.573-12.974-2.324,5.362h4.623Z" transform="translate(-223.169 -336.291)" fill="#fff"/>
        <g id="Group_5" data-name="Group 5" transform="translate(82.994 0.429)">
          <g id="Group_4" data-name="Group 4">
            <path id="Path_5" data-name="Path 5" d="M350.308,338.371a6.288,6.288,0,0,1,1.94,5.073q0,3.424-1.994,5.007t-6.089,1.585H341.71v5.152h-4.12V336.72h6.526Q348.364,336.72,350.308,338.371Zm-3.026,7.265a3.56,3.56,0,0,0,.739-2.431,2.567,2.567,0,0,0-.966-2.27,5.294,5.294,0,0,0-3-.673h-2.353v6.209h2.774A3.664,3.664,0,0,0,347.283,345.637Z" transform="translate(-337.59 -336.72)" fill="#35363f"/>
          </g>
        </g>
        <g id="Group_7" data-name="Group 7" transform="translate(100.885 0.429)">
          <g id="Group_6" data-name="Group 6">
            <path id="Path_6" data-name="Path 6" d="M395.906,342.85q0,4.44-3.513,5.734l4.677,6.6H392l-4.1-5.891H385.05v5.891h-4.12V336.72h7q4.3,0,6.143,1.453C395.291,339.143,395.906,340.7,395.906,342.85Zm-4.97,2.192a2.788,2.788,0,0,0,.768-2.18,2.338,2.338,0,0,0-.793-2.048,5.061,5.061,0,0,0-2.774-.553h-3.092v5.47h3.013A4.417,4.417,0,0,0,390.936,345.042Z" transform="translate(-380.93 -336.72)" fill="#35363f"/>
          </g>
        </g>
        <g id="Group_9" data-name="Group 9" transform="translate(118.846 0.004)">
          <g id="Group_8" data-name="Group 8" transform="translate(0)">
            <path id="Path_7" data-name="Path 7" d="M441.035,352.033a10.061,10.061,0,0,1-13.8,0,9.667,9.667,0,0,1,0-13.606,10.061,10.061,0,0,1,13.8,0,9.667,9.667,0,0,1,0,13.606Zm-1.4-6.791a6.047,6.047,0,0,0-1.585-4.215,5.23,5.23,0,0,0-7.794,0,6.379,6.379,0,0,0,0,8.417,5.254,5.254,0,0,0,7.794,0A5.988,5.988,0,0,0,439.631,345.242Z" transform="translate(-424.44 -335.69)" fill="#35363f"/>
          </g>
        </g>
        <g id="Group_11" data-name="Group 11" transform="translate(140.671 0.004)">
          <g id="Group_10" data-name="Group 10">
            <path id="Path_8" data-name="Path 8" d="M493.9,352.033a10.061,10.061,0,0,1-13.8,0,9.667,9.667,0,0,1,0-13.606,10.061,10.061,0,0,1,13.8,0,9.667,9.667,0,0,1,0,13.606Zm-1.4-6.791a6.047,6.047,0,0,0-1.585-4.215,5.23,5.23,0,0,0-7.794,0,6.379,6.379,0,0,0,0,8.417,5.255,5.255,0,0,0,7.794,0A5.988,5.988,0,0,0,492.5,345.242Z" transform="translate(-477.31 -335.69)" fill="#35363f"/>
          </g>
        </g>
        <g id="Group_13" data-name="Group 13" transform="translate(163.553 0.429)">
          <g id="Group_12" data-name="Group 12" transform="translate(0)">
            <path id="Path_9" data-name="Path 9" d="M545.421,336.72v3.62H536.86v3.992H545v3.62H536.86v7.241h-4.12V336.724h12.681Z" transform="translate(-532.74 -336.72)" fill="#35363f"/>
          </g>
        </g>
      </g>
    </g>
    <path id="Path_10" data-name="Path 10" d="M328.872,293.581a22.562,22.562,0,0,1-.083,2.365l-2.436-2.642c0-.409,0-.817,0-1.226H326.3c0-1.408-.017-2.815.021-4.223a.856.856,0,0,1,.409-.644,2.637,2.637,0,0,1,1.156-.206c.714.041.9.351.908,1.065C328.806,289.907,328.852,291.744,328.872,293.581Z" transform="translate(-116.025 -108.738)" fill="#35363f"/>
    <path id="Path_11" data-name="Path 11" d="M327.75,197.88h1.073v37.73l-.871.062Q327.859,216.786,327.75,197.88Z" transform="translate(-116.875 -56.406)" fill="#35363f"/>
    <path id="Path_12" data-name="Path 12" d="M128.71,299.172h30.064L171.435,283l-2.159-1.882-13.012,15.748Z" transform="translate(0 -105.284)" fill="#fff"/>
    <path id="Path_13" data-name="Path 13" d="M181.79,287.223l2.634-.26,15.53-18.8,20.434,22.118h20.847l-18.4-19.674L199.85,266.1Z" transform="translate(-31.168 -96.465)" fill="#35363f"/>
    <path id="Path_14" data-name="Path 14" d="M343.485,263.853h-2.84L325.68,245.9,309.016,263.49l4.128,4.8h-33.85l-6.952-7.542-2.435-2.642L243.38,229.33l-11.3,11.971H230.17l12.178-14.035,18.267,4.334v3.612l3.612,2.324V227.06h4.747V233.2l22.807-3.253,14.035,14.758h-2.634l-11.3-12.537L278,247.081h-5.643l8.739,10.271h18.3V248.1l26.18-4.677Z" transform="translate(-59.577 -73.54)" fill="#35363f"/>
    <path id="Path_15" data-name="Path 15" d="M504.573,299.908H470.516l-12.846-16.2,2.374-3.146,13.156,16Z" transform="translate(-193.164 -104.955)" fill="#fff"/>
    <rect id="Rectangle_15" data-name="Rectangle 15" width="3.302" height="3.302" transform="translate(169.404 189.689)" fill="#fff"/>
    <rect id="Rectangle_16" data-name="Rectangle 16" width="3.302" height="3.302" transform="translate(173.413 189.689)" fill="#fff"/>
    <path id="Path_16" data-name="Path 16" d="M230.592,306.72h-3.3v-1.478a3.3,3.3,0,0,1,3.3-3.3h0Z" transform="translate(-57.886 -117.51)" fill="#fff"/>
    <path id="Path_17" data-name="Path 17" d="M240.3,306.72H237v-4.78h0a3.3,3.3,0,0,1,3.3,3.3Z" transform="translate(-63.587 -117.51)" fill="#fff"/>
    <rect id="Rectangle_17" data-name="Rectangle 17" width="3.302" height="3.302" transform="translate(259.808 189.689)" fill="#fff"/>
    <rect id="Rectangle_18" data-name="Rectangle 18" width="3.302" height="3.302" transform="translate(263.817 189.689)" fill="#fff"/>
    <path id="Path_18" data-name="Path 18" d="M449.592,306.72h-3.3v-1.478a3.3,3.3,0,0,1,3.3-3.3h0Z" transform="translate(-186.482 -117.51)" fill="#fff"/>
    <path id="Path_19" data-name="Path 19" d="M459.3,306.72H456v-4.78h0a3.3,3.3,0,0,1,3.3,3.3Z" transform="translate(-192.183 -117.51)" fill="#fff"/>
    <rect id="Rectangle_19" data-name="Rectangle 19" width="3.302" height="3.302" transform="translate(227.197 174.829)" fill="#fff"/>
    <rect id="Rectangle_20" data-name="Rectangle 20" width="3.302" height="3.302" transform="translate(231.205 174.829)" fill="#fff"/>
    <path id="Path_20" data-name="Path 20" d="M370.592,270.72h-3.3v-1.478a3.3,3.3,0,0,1,3.3-3.3h0Z" transform="translate(-140.093 -96.371)" fill="#fff"/>
    <path id="Path_21" data-name="Path 21" d="M380.3,270.72H377v-4.78h0a3.3,3.3,0,0,1,3.3,3.3Z" transform="translate(-145.795 -96.371)" fill="#fff"/>
    <rect id="Rectangle_21" data-name="Rectangle 21" width="2.807" height="2.807" transform="translate(180.756 165.326)" fill="#fff"/>
    <rect id="Rectangle_22" data-name="Rectangle 22" width="2.807" height="2.807" transform="translate(184.162 165.326)" fill="#fff"/>
    <path id="Path_22" data-name="Path 22" d="M257.6,248.892H254.79v-1.255a2.807,2.807,0,0,1,2.807-2.807h0Z" transform="translate(-74.034 -83.975)" fill="#fff"/>
    <path id="Path_23" data-name="Path 23" d="M265.837,248.892H263.03V244.83h0a2.807,2.807,0,0,1,2.807,2.807Z" transform="translate(-78.872 -83.975)" fill="#fff"/>
    <path id="Path_24" data-name="Path 24" d="M321.19,169.455a27.412,27.412,0,0,0-6.638-1.759,71.33,71.33,0,0,0-13.3-.615,56.281,56.281,0,0,0-14.114,2.634c-.689.215-1.358.5-2.039.755,0,0-.025-.029-.017-.045.863-2.237,1.573-4.549,2.625-6.692a42.938,42.938,0,0,1,11.587-14.675c.97-.78,1.887-1.622,2.853-2.407.735-.594.978-.533,1.742.021a72.812,72.812,0,0,1,6.989,5.907,40.682,40.682,0,0,1,9.783,14.568,21.231,21.231,0,0,1,.656,2.242C321.281,169.41,321.235,169.43,321.19,169.455Z" transform="translate(-91.817 -26.078)" fill="#35363f"/>
    <path id="Path_25" data-name="Path 25" d="M272.559,146.27c-2.361,2.072-4.855,4.029-7.071,6.258A40.365,40.365,0,0,0,255.395,169c-.211.66-.487,1.3-.731,1.953a1.076,1.076,0,0,1-.091.136c-6.939-2.01-13.528-.739-20.033,2.312.116-.343.19-.57.272-.793a34.558,34.558,0,0,1,10.679-15.133,51.439,51.439,0,0,1,10.568-7,48.823,48.823,0,0,1,8.322-2.8,38.5,38.5,0,0,1,7.682-1.379C272.246,146.291,272.431,146.278,272.559,146.27Z" transform="translate(-62.143 -26.101)" fill="#35363f"/>
    <path id="Path_26" data-name="Path 26" d="M369.529,171.647a19,19,0,0,0-10.378-3.686,20.351,20.351,0,0,0-10.8,1.911c-.343-3.092-1.911-5.643-3.3-8.264a32.284,32.284,0,0,0-5.346-7.125,63.724,63.724,0,0,0-8-7.179c-.475-.351-.974-.669-1.461-1-.008,0,0-.025-.017-.14.7.074,1.387.116,2.064.223a74.974,74.974,0,0,1,8.648,1.593,55.392,55.392,0,0,1,9.321,3.183,36.552,36.552,0,0,1,13.623,11.224,48.831,48.831,0,0,1,5.016,7.8C369.116,170.627,369.294,171.1,369.529,171.647Z" transform="translate(-118.332 -26.036)" fill="#35363f"/>
    <path id="Path_27" data-name="Path 27" d="M344.085,207.494c-1.024-.2-2.048-.4-3.071-.594-2.283-.421-4.566-.875-6.857-1.234a21.757,21.757,0,0,0-2.749-.095c-.161,0-.322,0-.545,0-.049-2.576-.1-5.131-.153-7.761h.442a85.3,85.3,0,0,1,9.181.512,1.219,1.219,0,0,1,.991.656,21.668,21.668,0,0,1,2.547,7.208c.083.392.169.78.252,1.172A.654.654,0,0,1,344.085,207.494Z" transform="translate(-118.614 -56.365)" fill="#35363f"/>
    <path id="Path_28" data-name="Path 28" d="M359.718,208.692c-.776-3.166-1.106-6.5-3.3-9.272a28.808,28.808,0,0,1,5.375,1.3,3.414,3.414,0,0,1,.66.252,2.029,2.029,0,0,0,2.089,0,18.079,18.079,0,0,1,5.366-1.346,1.7,1.7,0,0,1,1.474.417,14.024,14.024,0,0,1,1.193,1.127,26.99,26.99,0,0,1,3.1,4.442A21.783,21.783,0,0,0,359.718,208.692Z" transform="translate(-133.71 -57.31)" fill="#35363f"/>
    <path id="Path_29" data-name="Path 29" d="M279.008,199.83c-1.7,3.492-1.7,3.492-3.212,9.024-5.474-2.407-11.047-3.179-16.789-.9-.012-.037-.025-.07-.037-.107.083-.149.165-.3.244-.45a22.705,22.705,0,0,1,3.612-4.768,1.634,1.634,0,0,1,1.643-.586c1.449.3,2.906.553,4.363.813a.821.821,0,0,0,.541-.033,11.907,11.907,0,0,1,3.558-1.461c1.858-.5,3.728-.966,5.589-1.445C278.661,199.88,278.805,199.863,279.008,199.83Z" transform="translate(-76.488 -57.551)" fill="#35363f"/>
    <path id="Path_30" data-name="Path 30" d="M301,208.093a9.554,9.554,0,0,1,.074-.962,24.631,24.631,0,0,1,2.745-8.07,1.1,1.1,0,0,1,.859-.586,44.912,44.912,0,0,1,6.857-.594c.07,0,.14.012.248.021v7.761C308.092,205.888,304.616,207.036,301,208.093Z" transform="translate(-101.168 -56.406)" fill="#35363f"/>
    <path id="Path_31" data-name="Path 31" d="M397.457,206.042c-1.437-2.291-2.741-4.817-5.267-6.337,5.148-.454,11.823,1.759,13.713,4.169-.268,0-.508.008-.747,0a12.451,12.451,0,0,0-5.713,1.044C398.766,205.224,398.143,205.65,397.457,206.042Z" transform="translate(-154.714 -57.443)" fill="#35363f"/>
    <path id="Path_32" data-name="Path 32" d="M244.3,210.7c-2.956-1.589-5.961-2.993-9.515-2.25.471-.487,4.925-2.237,6.919-2.749a23.747,23.747,0,0,1,7.269-.743c-.817.863-1.726,1.713-2.5,2.667S245.046,209.623,244.3,210.7Z" transform="translate(-62.284 -60.521)" fill="#35363f"/>
    <path id="Path_33" data-name="Path 33" d="M327.516,132.36c.9,1.358.636,2.778.623,4.219-.31.037-.611.074-.962.12C327.2,135.245,326.653,133.8,327.516,132.36Z" transform="translate(-116.451 -17.933)"/>
    <path id="Path_34" data-name="Path 34" d="M264.743,144.5c.186.665.421,1.54.677,2.407a3.007,3.007,0,0,1,.008,2.064c-.173.421-.433.784-.958.722-.491-.058-.66-.446-.751-.871a4.034,4.034,0,0,1,.33-2.357C264.326,145.755,264.557,145.028,264.743,144.5Z" transform="translate(-79.239 -25.062)" fill="#fff"/>
    <path id="Path_35" data-name="Path 35" d="M327.551,144.337H323.72a2.114,2.114,0,0,1,1.882-1.028A2.062,2.062,0,0,1,327.551,144.337Z" transform="translate(-114.509 -24.362)"/>
    <g id="Group_16" data-name="Group 16" transform="translate(168.775 101.82)">
      <path id="Path_36" data-name="Path 36" d="M390.8,140c.2.743.533,1.837.78,2.952a9.453,9.453,0,0,1,.264,2.254c-.025.83-.718,1.569-1.271,1.552-.586-.016-1.131-.718-1.152-1.631a5.545,5.545,0,0,1,.206-1.709C390.012,142.147,390.483,140.9,390.8,140Z" transform="translate(-321.861 -124.239)" fill="#fff"/>
      <path id="Path_37" data-name="Path 37" d="M305.715,126.85c.186.706.512,1.812.755,2.939a10.02,10.02,0,0,1,.289,2.316,1.57,1.57,0,0,1-1.263,1.56,1.451,1.451,0,0,1-1.148-1.622,9.826,9.826,0,0,1,.425-2.357C305.079,128.6,305.484,127.539,305.715,126.85Z" transform="translate(-271.909 -116.518)" fill="#fff"/>
      <path id="Path_38" data-name="Path 38" d="M229.431,163.58c.281,1,.665,2.308,1.011,3.624a2.837,2.837,0,0,1-.26,2.46c-.215.305-.681.685-.958.632a1.565,1.565,0,0,1-.958-.83,3.475,3.475,0,0,1,.016-2.5c.116-.376.3-.731.421-1.1C228.985,165.012,229.249,164.15,229.431,163.58Z" transform="translate(-227.101 -138.085)" fill="#fff"/>
      <path id="Path_39" data-name="Path 39" d="M252.328,130.42c.215.784.57,1.953.838,3.141a16.68,16.68,0,0,1,.231,2.138.889.889,0,0,1-.058.305c-.211.7-.78,1.251-1.259,1.214-.512-.041-.949-.594-1.086-1.362a5.265,5.265,0,0,1,.45-2.786C251.808,132.067,252.121,131.043,252.328,130.42Z" transform="translate(-240.549 -118.614)" fill="#fff"/>
      <path id="Path_40" data-name="Path 40" d="M284.67,102.86c.227.826.561,2.035.9,3.245a3.682,3.682,0,0,1,.029,2.5c-.223.533-.533,1.02-1.2,1.007-.479-.008-.925-.57-1.049-1.251a5.2,5.2,0,0,1,.392-2.795C284.125,104.552,284.447,103.52,284.67,102.86Z" transform="translate(-259.545 -102.431)" fill="#fff"/>
      <path id="Path_41" data-name="Path 41" d="M367.945,108.53c.215.784.574,1.928.834,3.092a16.163,16.163,0,0,1,.223,2.2,1.041,1.041,0,0,1-.107.417c-.26.673-.776,1.106-1.243,1.044a1.459,1.459,0,0,1-1.028-1.271,5.285,5.285,0,0,1,.454-2.9C367.437,110.144,367.734,109.162,367.945,108.53Z" transform="translate(-308.442 -105.76)" fill="#fff"/>
      <path id="Path_42" data-name="Path 42" d="M417.76,130.03c.211.78.578,1.965.838,3.17a8.085,8.085,0,0,1,.182,2.2,1.534,1.534,0,0,1-1.218,1.4,1.345,1.345,0,0,1-1.135-1.432,8,8,0,0,1,.305-2.312C417.054,131.9,417.5,130.773,417.76,130.03Z" transform="translate(-337.72 -118.385)" fill="#fff"/>
      <path id="Path_43" data-name="Path 43" d="M274.6,131.98c.26.941.619,1.973.813,3.038a2.991,2.991,0,0,1-.252,1.548,1,1,0,0,1-.8.508,1.1,1.1,0,0,1-.714-.632,3.048,3.048,0,0,1,.132-2.237C274.068,133.437,274.349,132.669,274.6,131.98Z" transform="translate(-253.79 -119.53)" fill="#fff"/>
      <path id="Path_44" data-name="Path 44" d="M421.241,159.37c.194.7.5,1.622.7,2.568a5.011,5.011,0,0,1,.07,1.7c-.095.677-.549,1.049-1.011.974a.938.938,0,0,1-.784-1.1,13.489,13.489,0,0,1,.433-2.283C420.828,160.509,421.1,159.816,421.241,159.37Z" transform="translate(-339.942 -135.613)" fill="#fff"/>
      <path id="Path_45" data-name="Path 45" d="M299.224,115.11c.186.665.45,1.643.735,2.613a2.434,2.434,0,0,1-.14,2.043c-.161.26-.557.561-.8.528a1.174,1.174,0,0,1-.743-.681,3.234,3.234,0,0,1,.177-2.3C298.762,116.489,299.038,115.651,299.224,115.11Z" transform="translate(-268.258 -109.624)" fill="#fff"/>
      <path id="Path_46" data-name="Path 46" d="M402.779,118.19c.2.7.442,1.61.714,2.518a2.757,2.757,0,0,1-.041,2c-.177.4-.458.8-.912.66a1.369,1.369,0,0,1-.735-.78,3.207,3.207,0,0,1,.215-2.233C402.317,119.561,402.577,118.764,402.779,118.19Z" transform="translate(-329.063 -111.432)" fill="#fff"/>
      <path id="Path_47" data-name="Path 47" d="M333.075,104.1c.2.694.458,1.647.743,2.6a2.418,2.418,0,0,1-.14,2.043,1.2,1.2,0,0,1-.863.52c-.244-.008-.578-.38-.681-.66a3.232,3.232,0,0,1,.178-2.3C332.6,105.491,332.876,104.674,333.075,104.1Z" transform="translate(-288.14 -103.159)" fill="#fff"/>
      <path id="Path_48" data-name="Path 48" d="M391.618,101.82c.2.689.442,1.606.718,2.51a2.465,2.465,0,0,1-.124,2.1,1.193,1.193,0,0,1-.859.52c-.244-.008-.582-.372-.685-.652a3.258,3.258,0,0,1,.19-2.353C391.156,103.174,391.416,102.4,391.618,101.82Z" transform="translate(-322.51 -101.82)" fill="#fff"/>
      <path id="Path_49" data-name="Path 49" d="M253.083,104.26c.194.685.45,1.618.731,2.543a2.448,2.448,0,0,1-.111,2.043.808.808,0,0,1-1.569-.128,3.131,3.131,0,0,1,.165-2.242C252.6,105.672,252.873,104.854,253.083,104.26Z" transform="translate(-241.164 -103.253)" fill="#fff"/>
      <path id="Path_50" data-name="Path 50" d="M343.379,123.5a29.274,29.274,0,0,1,.793,2.914,3.65,3.65,0,0,1-.244,1.73,1.017,1.017,0,0,1-.821.471c-.239-.012-.566-.347-.669-.607a3.1,3.1,0,0,1,.116-2.242C342.851,124.961,343.14,124.156,343.379,123.5Z" transform="translate(-294.18 -114.55)" fill="#fff"/>
      <path id="Path_51" data-name="Path 51" d="M237.681,120.95a27.478,27.478,0,0,1,.78,2.828,3.487,3.487,0,0,1-.194,1.676,1.04,1.04,0,0,1-.83.549,1,1,0,0,1-.714-.681,7.437,7.437,0,0,1,.161-2.18A18.854,18.854,0,0,1,237.681,120.95Z" transform="translate(-232.189 -113.053)" fill="#fff"/>
      <path id="Path_52" data-name="Path 52" d="M374.1,132.73c.173.627.466,1.47.627,2.336a7.057,7.057,0,0,1,.087,2,.877.877,0,1,1-1.742-.144,12.657,12.657,0,0,1,.384-2.287C373.642,133.919,373.931,133.229,374.1,132.73Z" transform="translate(-312.265 -119.97)" fill="#fff"/>
      <path id="Path_53" data-name="Path 53" d="M428.257,144.71a20.494,20.494,0,0,1,.557,2.06,3.618,3.618,0,0,1-.091,1.441c-.05.211-.429.516-.586.479-.248-.058-.594-.359-.611-.582a5.613,5.613,0,0,1,.132-1.7A14.191,14.191,0,0,1,428.257,144.71Z" transform="translate(-344.23 -127.005)" fill="#fff"/>
      <path id="Path_54" data-name="Path 54" d="M353.611,109.62a16.318,16.318,0,0,1,.586,2.043,3.739,3.739,0,0,1-.14,1.441.687.687,0,0,1-.516.421c-.215-.017-.57-.252-.59-.425a5.862,5.862,0,0,1,.033-1.742A11.553,11.553,0,0,1,353.611,109.62Z" transform="translate(-300.42 -106.4)" fill="#fff"/>
      <path id="Path_55" data-name="Path 55" d="M383.594,118.54a19.927,19.927,0,0,1,.561,2.035,3.764,3.764,0,0,1-.1,1.437c-.045.2-.392.508-.533.475-.256-.062-.627-.326-.644-.537A5.834,5.834,0,0,1,383,120.2,12.7,12.7,0,0,1,383.594,118.54Z" transform="translate(-318.011 -111.638)" fill="#fff"/>
      <path id="Path_56" data-name="Path 56" d="M317.574,108.28a17.706,17.706,0,0,1,.557,2.023,3.988,3.988,0,0,1-.112,1.494.73.73,0,0,1-.561.433.742.742,0,0,1-.561-.458,5.887,5.887,0,0,1,.058-1.746A12.789,12.789,0,0,1,317.574,108.28Z" transform="translate(-279.256 -105.613)" fill="#fff"/>
      <path id="Path_57" data-name="Path 57" d="M290.1,139.89a16.851,16.851,0,0,1,.549,1.99,4.112,4.112,0,0,1-.087,1.5c-.041.2-.38.487-.545.462-.231-.033-.582-.3-.6-.5a5.143,5.143,0,0,1,.058-1.688A12.585,12.585,0,0,1,290.1,139.89Z" transform="translate(-263.118 -124.175)" fill="#fff"/>
      <path id="Path_58" data-name="Path 58" d="M406.706,150.8a22.739,22.739,0,0,1,.615,2.254,2.783,2.783,0,0,1-.177,1.259c-.062.19-.355.442-.52.425-.219-.025-.566-.264-.586-.446a5.289,5.289,0,0,1,.021-1.693A13.471,13.471,0,0,1,406.706,150.8Z" transform="translate(-331.587 -130.581)" fill="#fff"/>
      <path id="Path_59" data-name="Path 59" d="M413.537,109.44a17.486,17.486,0,0,1,.561,2.052,4.121,4.121,0,0,1-.136,1.5.676.676,0,0,1-.524.4c-.219-.033-.553-.277-.574-.462a5.193,5.193,0,0,1,.033-1.7A11.9,11.9,0,0,1,413.537,109.44Z" transform="translate(-335.598 -106.294)" fill="#fff"/>
      <path id="Path_60" data-name="Path 60" d="M268.175,114.21a16.956,16.956,0,0,1,.574,2,3.756,3.756,0,0,1-.107,1.449c-.045.2-.376.491-.545.466-.231-.029-.59-.3-.611-.491a5.383,5.383,0,0,1,.062-1.688A12.8,12.8,0,0,1,268.175,114.21Z" transform="translate(-250.241 -109.095)" fill="#fff"/>
      <path id="Path_61" data-name="Path 61" d="M243.125,154.49c.223.813.483,1.573.628,2.353a2.225,2.225,0,0,1-.178,1.135.79.79,0,0,1-.566.446.757.757,0,0,1-.574-.454,5.539,5.539,0,0,1,.041-1.692A13.883,13.883,0,0,1,243.125,154.49Z" transform="translate(-235.529 -132.748)" fill="#fff"/>
      <path id="Path_62" data-name="Path 62" d="M357.411,136.7a19.813,19.813,0,0,1,.561,2.043,3.545,3.545,0,0,1-.091,1.441.79.79,0,0,1-.6.479.805.805,0,0,1-.578-.528,6.066,6.066,0,0,1,.116-1.75A13.673,13.673,0,0,1,357.411,136.7Z" transform="translate(-302.643 -122.301)" fill="#fff"/>
      <path id="Path_63" data-name="Path 63" d="M226.5,146.38a16.362,16.362,0,0,1,.574,1.986,3.814,3.814,0,0,1-.111,1.445c-.05.2-.38.487-.545.462-.231-.033-.582-.3-.607-.5a4.91,4.91,0,0,1,.045-1.631A13.281,13.281,0,0,1,226.5,146.38Z" transform="translate(-225.767 -127.985)" fill="#fff"/>
    </g>
    <path id="Path_64" data-name="Path 64" d="M130.75,394.222l7.777-.2c4.95-.116,12.021-.264,20.5-.384,4.244-.054,8.838-.116,13.7-.178l15.29-.14c5.3-.029,10.782-.087,16.351-.091l16.884-.037c5.655.012,11.315.025,16.884.033s11.047.062,16.351.087l15.29.14c4.863.045,9.457.111,13.7.178,8.483.12,15.554.272,20.5.388l7.777.206-7.777.206c-4.949.116-12.021.264-20.5.388-4.244.066-8.838.132-13.7.177l-15.29.14c-5.3.025-10.782.087-16.351.087s-11.224.025-16.884.033l-16.884-.037c-5.569,0-11.047-.062-16.351-.091l-15.29-.14c-4.863-.062-9.457-.124-13.7-.178-8.483-.12-15.554-.272-20.5-.384Z" transform="translate(-1.198 -171.091)" fill="#35363f"/>
  </g>
</svg>
