<svg xmlns="http://www.w3.org/2000/svg" width="31.5" height="31.5" viewBox="0 0 31.5 31.5">
  <g id="Icon_ionic-logo-instagram" data-name="Icon ionic-logo-instagram" transform="translate(-4.5 -4.5)">
    <path id="Path_65" data-name="Path 65" d="M26.813,7.125a6.582,6.582,0,0,1,6.563,6.562V26.813a6.582,6.582,0,0,1-6.562,6.563H13.687a6.582,6.582,0,0,1-6.562-6.562V13.687a6.582,6.582,0,0,1,6.562-6.562H26.813m0-2.625H13.687A9.215,9.215,0,0,0,4.5,13.687V26.813A9.215,9.215,0,0,0,13.687,36H26.813A9.215,9.215,0,0,0,36,26.813V13.687A9.215,9.215,0,0,0,26.813,4.5Z" fill="#fff"/>
    <path id="Path_66" data-name="Path 66" d="M25.594,12.937a1.969,1.969,0,1,1,1.969-1.969A1.964,1.964,0,0,1,25.594,12.937Z" transform="translate(3.188 0.75)" fill="#fff"/>
    <path id="Path_67" data-name="Path 67" d="M19.125,13.875a5.25,5.25,0,1,1-5.25,5.25,5.255,5.255,0,0,1,5.25-5.25m0-2.625A7.875,7.875,0,1,0,27,19.125a7.877,7.877,0,0,0-7.875-7.875Z" transform="translate(1.125 1.125)" fill="#fff"/>
  </g>
</svg>
